<svg width="52" height="52" viewBox="0 0 52 52" fill="none" xmlns="http://www.w3.org/2000/svg">
<g clip-path="url(#clip0_39128_304620)">
<path d="M51 0.272949H1V51.7271H51V0.272949Z" fill="#005A9B"/>
<path d="M48.139 3.21729H3.86133V48.7828H48.139V3.21729Z" fill="white"/>
<path fill-rule="evenodd" clip-rule="evenodd" d="M10.7126 10.1829L10.4686 10.1832L10.2222 10.2284L10.1027 10.3729L9.94278 10.4839L9.69696 10.4623L9.42406 10.4137L9.32405 10.1117L9.2331 9.91999L9.02452 9.89497L8.85678 9.91054L8.77227 10.0963L8.59501 10.224L8.28184 10.2975L7.84911 10.3599L7.53775 10.4555L7.3401 10.5628L7.2507 10.8451L7.24247 11.046L7.3639 11.0793L7.48475 11.1792L7.5757 11.3709L7.59622 11.6207L7.58625 11.9553L7.39214 12.1067L7.21456 12.5306L7.12046 12.9841L7.03781 13.3475L6.87567 13.6588L6.72066 13.8289L6.55787 13.9775L6.94159 14.2309L7.29334 14.3983L7.52663 14.495L7.53569 14.6054L7.39394 14.7074L7.06579 14.8269L6.76896 14.9434L6.71442 15.1931L6.70046 15.9354C6.70046 15.9354 6.96597 15.6662 7.03685 15.6151C7.10779 15.5641 7.3895 15.3378 7.3895 15.3378L7.80351 15.0475L8.31838 14.6884L8.7906 14.4222C8.7906 14.4222 9.11688 14.2068 9.18782 14.1558C9.2587 14.1047 9.52723 13.9464 9.57772 13.875C9.62821 13.8036 9.90323 13.4222 9.90323 13.4222L10.1309 13.2232C10.1309 13.2232 10.3209 13.25 10.3767 13.2448C10.4326 13.2396 10.6304 13.2879 10.6863 13.2828C10.7423 13.2776 11.0049 13.2754 11.0049 13.2754L11.2417 13.1867L11.5177 13.2723L11.918 13.3463L12.3208 13.3756L12.5258 13.3565L12.7126 13.1168L12.963 12.6638L12.8529 12.5407L12.5102 12.4835L11.9384 12.2253L11.6084 12.0932L11.1988 11.7532C11.1988 11.7532 10.9256 11.4005 10.9015 11.336C10.8774 11.2716 10.7673 11.0745 10.7563 10.9421C10.7455 10.8096 10.7927 10.4716 10.7927 10.4716L10.7794 10.31L10.7126 10.1829ZM13.1194 12.7383L12.9717 13.0705L12.8667 13.3916L12.8086 13.597L12.9464 13.6733L13.3419 13.8438L13.8036 13.9789L14.2082 14.0302C14.2082 14.0302 14.575 14.1518 14.5191 14.157C14.4632 14.1622 13.7547 14.2948 13.7547 14.2948L13.1097 14.4436L12.4307 14.7068L12.084 14.9018L11.7089 14.9072L11.327 14.6758C11.327 14.6758 11.2601 14.5485 11.2097 14.6199C11.1593 14.6913 11.0789 14.8545 11.0789 14.8545L10.6372 15.0361L10.6034 14.8542L10.8149 14.6122L10.6339 14.54C10.6339 14.54 10.5352 14.4824 10.4457 14.5352C10.3562 14.588 10.0076 14.6872 10.0076 14.6872L9.92664 14.917L9.98684 15.1187L9.87815 15.24L9.60827 15.1539C9.60827 15.1539 9.21078 14.9613 9.15129 14.9223C9.0918 14.8834 8.87955 14.8141 8.87955 14.8141L8.48998 14.8726L8.10368 15.0419L7.21932 15.7761L6.96713 16.1331L6.96134 16.5188L6.93992 16.7877L6.75089 17.2277L6.60926 17.5595L6.77282 17.7221L6.99652 17.7014L7.31373 17.6052L7.72003 17.523L8.10825 17.3757L8.38771 17.3498L8.32777 17.5332L8.16504 17.8374L7.97293 18.2405L7.99119 18.4612L8.10073 18.6512L8.35529 19.0056L8.49126 19.2892L8.45357 19.5152L8.20724 19.716L7.85998 19.9038L7.90694 20.0178L8.1588 20.0389L8.33561 20.1337L8.37974 20.441L8.38655 20.7517L8.14974 20.8404L7.7675 20.8314L7.59062 20.7366L7.61152 20.5346L7.62516 20.2442L7.47594 20.0285L7.26961 19.803L7.14998 19.7919L7.09364 20.0195L7.11782 20.3135L7.12097 20.5801L7.02192 20.7449L6.85785 20.8047L6.73468 20.9051L6.78884 21.1073L7.03839 21.1731L7.33116 21.2349L7.59197 21.2106L7.77103 21.105L7.89735 21.2712L8.06464 21.4781L8.29741 21.7233L8.4892 21.7722L8.72422 21.891L8.88611 22.0316L9.03886 22.2175L9.00844 22.5317L8.92206 22.6954L8.7358 22.9421L8.72769 23.2987L8.77966 23.7013C8.77966 23.7013 8.74377 23.9493 8.86109 24.0052C8.97834 24.0609 9.09379 24.0947 9.09379 24.0947L9.31382 24.1855L9.1738 24.3097L8.98336 24.3497L8.78024 24.3908L8.76719 24.6882L8.87665 24.8782L9.13392 24.8099C9.13392 24.8099 9.45307 24.7358 9.51083 24.7526C9.56846 24.7695 10.0944 24.6983 10.0944 24.6983L10.4689 24.6859L10.3922 24.8932L10.1067 25.0753L9.49449 25.4658L9.15148 25.7049L9.38464 25.7277L9.84869 25.6623L10.4382 25.4519L10.5741 25.506L10.43 25.8085C10.43 25.8085 10.2583 26.0024 10.2264 26.072C10.1946 26.1417 10.2428 26.2706 10.2428 26.2706L10.4795 26.1819L10.9027 26.2316L11.0613 26.1055L11.0808 25.659L11.1931 25.4262L11.4298 25.3375L11.7185 25.5776L12.033 25.7485L12.3343 25.9875L12.5303 26.0137L12.7075 25.886L12.937 25.7091L13.0206 25.8125L13.0558 26.2389L13.0343 26.6636L13.1194 27.0114C13.1194 27.0114 13.1663 27.1254 13.265 27.183C13.3636 27.2405 13.7326 27.3173 13.7326 27.3173L14.2713 27.4008L14.7203 27.3813L14.9857 27.112L15.303 26.8601C15.303 26.8601 15.4965 26.9311 15.5897 26.9226C15.6829 26.9139 15.9293 26.8688 15.9293 26.8688L15.9819 26.3675L15.9473 25.9481L16.1653 25.6317L16.4453 25.539L16.7994 25.5062L17.172 25.4716L17.4557 25.423L18.1603 25.6982L18.7244 25.935L18.998 26.2208L19.4262 26.6331L19.8471 26.8829L20.2826 27.1539L20.6614 27.3484L20.9127 27.4361L21.5505 27.3545L22.2722 27.1542L22.9411 26.996L23.2806 26.7865L23.6897 26.437L23.99 26.2091L24.2675 25.9316L24.5294 25.6181L24.7962 25.4378L24.9825 25.4204L25.3293 25.4549L25.8879 25.6253L26.2234 25.7499L26.5402 25.7205L26.8465 25.4919L27.3223 25.1141L27.612 24.9094L27.8113 24.8241L27.962 25.0547L28.0823 25.3771L28.1269 25.6915L28.0238 26.0345L27.7194 26.4409L27.4041 26.7885L27.2972 27.0876L27.3768 27.3693L27.5652 27.6037L27.8075 27.7367L28.2007 27.7224L28.3537 27.5304L28.485 26.9995L28.5936 26.7226L28.8995 26.5607L29.0761 26.4261L28.9575 26.1255L28.8557 25.8015L28.9955 25.4478L29.246 25.2244L29.4605 25.0932L29.9173 25.0953L30.4927 25.2421L30.8451 25.3427L31.1804 25.3117L31.6582 25.1116L32.2646 24.8774L32.6767 24.639L32.8594 24.5775L33.1949 24.7021L33.5912 24.9543L33.9921 24.9615L34.6467 24.8562L35.2897 24.6853L35.8343 24.6125L36.3252 24.3445L36.7915 24.0788L37.4663 23.7644L37.8453 23.5069L38.1736 23.3875L38.8018 23.4181L39.2225 23.5124L39.5866 23.3007L40.3125 22.9219L40.6964 22.5678L40.9651 22.5651L41.2187 22.6821L41.5542 22.651L42.2548 22.423L42.6768 22.2283L43.154 22.2507L43.5712 22.3009L43.909 22.299L44.2389 22.1277L44.5297 22.0117L44.602 22.2052L44.7061 22.5585C44.7061 22.5585 44.692 22.9156 44.7575 22.954C44.8232 22.9924 44.9068 23.0958 44.9068 23.0958L45.0935 22.8561L45.2507 22.4857L45.4507 22.178L45.6592 22.1292L45.6278 21.9765L45.3433 21.5581L45.2131 21.1183L45.1894 20.8314L45.2573 20.5138L45.0228 20.4022L44.9167 20.0267L44.9047 19.4274L44.8864 18.9773L44.7419 18.5903L44.0653 17.06L43.9165 16.6219L43.8573 16.3605L43.9618 16.2618L44.2701 16.0554L44.5555 15.8732L44.6299 15.6367L44.7366 15.3377L44.8712 15.1473L45.0413 15.087L45.2594 15.0001L45.2652 14.8438L45.1203 14.6794L44.6543 14.3375L44.2875 14.2158L43.9966 14.1762L43.568 14.216L43.0703 14.1733L42.8694 14.0139L42.8529 13.5858C42.8529 13.5858 42.7341 13.056 42.7286 12.9898C42.7232 12.9236 42.6846 12.6825 42.6737 12.5501C42.6627 12.4176 42.6798 11.9419 42.6798 11.9419L42.5071 11.6689L41.9803 11.273L41.5774 11.1698L41.2833 10.8635L40.878 10.5009L40.5797 10.2991L40.3278 10.278L40.0858 10.53L39.7792 10.7586L39.4735 10.9204L38.9643 10.9677L38.4894 10.9006L38.2114 10.5635L37.9099 10.547L37.7531 10.9246L37.4841 11.3053L37.01 11.779L36.5619 12.1097C36.5619 12.1097 36.2633 12.3598 36.1888 12.3668L35.6612 12.4158C35.6612 12.4158 35.4484 12.569 35.3944 12.5963C35.3402 12.6235 35.0789 12.7145 35.0789 12.7145L34.7885 12.608L33.9877 12.3043L33.5758 12.1647L33.1076 12.4082L32.4081 12.6511L32.02 12.7984L31.6269 12.8127L31.0047 12.6258L30.5634 12.5112L30.3842 12.4611L30.0543 12.5585L29.7116 12.5014L29.3329 12.307L29.0315 12.0682L28.6105 11.8181L28.4578 11.7879L28.2769 11.8714L28.0474 12.0483L27.7542 12.209L27.4824 12.1007L27.3337 11.8922L27.2222 11.4506L27.0459 10.9778L26.75 10.8051L26.3639 10.6781L25.9089 10.6981L25.609 10.7037L25.4996 10.5137L25.4909 10.1809L25.5899 10.0161L25.4859 9.89233L25.1146 10.0157L24.7155 10.1862L24.1391 10.3287L23.7751 10.5405L23.2701 10.5652L22.8247 10.4731L22.1778 10.4441L21.6525 10.4484L21.2011 10.5126L20.9475 10.6251L20.328 10.9272L19.9062 11.1221L19.4273 11.4628C19.4273 11.4628 19.1714 11.62 19.0296 11.7221C18.8878 11.8242 18.451 12.065 18.451 12.065L17.8898 12.5467L17.6358 12.726L17.3076 12.8455L16.8713 12.8637L16.0699 12.7826L14.881 12.7818L13.5977 12.8493L13.1194 12.7383ZM5.19614 16.4379L5.45643 16.4722L5.60552 16.4078L5.72374 16.2935L5.97856 16.1268L6.08494 16.0055L6.08797 15.7984L6.00564 15.5596L5.91585 15.3664L5.83005 15.3027L5.75126 15.4055L5.6544 15.616L5.50834 15.7171C5.50834 15.7171 5.36285 15.8259 5.36484 15.8496C5.36671 15.8734 5.29159 16.0473 5.29159 16.0473L5.18739 16.1684L5.06396 16.2195L5.12243 16.3573L5.19614 16.4379ZM6.23738 16.9264L6.28832 16.9805L6.3435 16.9718C6.3435 16.9718 6.41258 16.9433 6.4239 16.9311C6.43535 16.919 6.4794 16.8893 6.48687 16.8666C6.49426 16.8438 6.50404 16.773 6.50404 16.773L6.51285 16.6913L6.47387 16.6324L6.43136 16.6069L6.36299 16.6426L6.31256 16.7465L6.28439 16.819L6.23037 16.8792L6.23738 16.9264Z" fill="#EBEBEC"/>
<path d="M2.17389 11.0871C4.39903 13.2542 7.51979 14.7991 11.094 15.2513C16.8826 15.9836 22.1903 13.6387 24.7241 9.68726C22.6444 14.5831 16.5677 17.6543 9.85233 16.8046C6.9233 16.4341 4.28737 15.37 2.17383 13.8507L2.17389 11.0871Z" fill="#005A9B"/>
<path d="M2.17389 16.7182C4.39903 18.8853 7.51979 20.4301 11.094 20.8824C16.8826 21.6149 22.1903 19.2699 24.7241 15.3184C22.6444 20.2142 16.5677 23.2855 9.85233 22.4358C6.9233 22.0652 4.28737 21.0011 2.17383 19.4818L2.17389 16.7182Z" fill="#005A9B"/>
<path d="M2.17389 22.3498C4.39903 24.5168 7.51979 26.0617 11.094 26.5139C16.8826 27.2463 22.1903 24.9014 24.7241 20.95C22.6444 25.8456 16.5677 28.917 9.85233 28.0673C6.9233 27.6967 4.28737 26.6325 2.17383 25.1134L2.17389 22.3498Z" fill="#005A9B"/>
<path d="M2.17389 27.981C4.39903 30.1481 7.51979 31.693 11.094 32.1452C16.8826 32.8777 22.1903 30.5328 24.7241 26.5813C22.6444 31.4769 16.5677 34.5483 9.85233 33.6986C6.9233 33.328 4.28737 32.264 2.17383 30.7447L2.17389 27.981Z" fill="#005A9B"/>
<path d="M49.0638 25.7356C46.8386 23.5686 43.718 22.0236 40.1437 21.5714C34.3551 20.839 29.0475 23.184 26.5137 27.1355C28.5933 22.2397 34.67 19.1684 41.3855 20.0181C44.3145 20.3887 46.9504 21.4528 49.0639 22.972V25.7356H49.0638Z" fill="#005A9B"/>
<path d="M49.0638 20.1043C46.8386 17.9372 43.718 16.3924 40.1437 15.9401C34.3551 15.2078 29.0475 17.5526 26.5137 21.5042C28.5933 16.6084 34.67 13.537 41.3855 14.3867C44.3145 14.7573 46.9504 15.8213 49.0639 17.3406V20.1043H49.0638Z" fill="#005A9B"/>
<path d="M49.0638 14.4729C46.8386 12.3059 43.718 10.7611 40.1437 10.3088C34.3551 9.57642 29.0475 11.9213 26.5137 15.8728C28.5933 10.9771 34.67 7.90564 41.3855 8.75541C44.3145 9.12601 46.9504 10.1901 49.0639 11.7093V14.4729H49.0638Z" fill="#005A9B"/>
<path d="M49.0638 8.84163C46.8386 6.67457 43.718 5.12966 40.1437 4.67744C34.3551 3.94506 29.0475 6.29002 26.5137 10.2414C28.5933 5.34571 34.67 2.27434 41.3855 3.12404C44.3145 3.49464 46.9504 4.55871 49.0639 6.07796V8.84163H49.0638Z" fill="#005A9B"/>
<path d="M38.7544 40.7048H40.366L42.9536 37.0837H45.7582L42.3423 41.864L45.9879 46.6442H45.9547H43.2163L40.4297 43.0233H38.7544V46.6442H36.2471V37.0837H38.7544V40.7048Z" fill="#005A9B"/>
<path fill-rule="evenodd" clip-rule="evenodd" d="M8.37895 42.6569H9.93929C10.6139 42.6569 11.6056 42.8065 11.6056 43.7184C11.6056 44.5622 10.8784 44.8479 10.2303 44.8479H8.37888L8.37895 42.6569ZM8.37895 38.8056H9.78069C10.4286 38.8056 11.1692 39.0097 11.1692 39.8127C11.1692 40.5883 10.5081 40.8605 9.87331 40.8605H8.37895V38.8056ZM6.05566 46.6442H10.151C11.8174 46.6442 13.6688 45.9775 13.6688 43.9632C13.6688 42.7113 12.8487 41.7723 11.619 41.609V41.5817C12.5844 41.2687 13.2323 40.5339 13.2323 39.4587C13.2323 37.363 11.4471 37.0093 9.80719 37.0093H6.05566V46.6442Z" fill="#005A9B"/>
<path fill-rule="evenodd" clip-rule="evenodd" d="M17.5875 38.9688H18.8042C20.5497 38.9688 22.0176 39.8535 22.0176 41.745C22.0176 43.9359 20.5761 44.6845 18.6587 44.6845H17.5875V38.9688ZM15.2642 46.6441H18.8966C21.6869 46.6441 24.1599 44.9703 24.1599 41.8538C24.1599 38.3293 21.6341 37.0093 18.619 37.0093H15.2642V46.6441Z" fill="#005A9B"/>
<path fill-rule="evenodd" clip-rule="evenodd" d="M28.0791 38.9688H29.296C31.0414 38.9688 32.5093 39.8535 32.5093 41.745C32.5093 43.9359 31.0678 44.6845 29.1504 44.6845H28.0791V38.9688ZM25.7559 46.6441H29.3882C32.1786 46.6441 34.6516 44.9703 34.6516 41.8538C34.6516 38.3293 32.1257 37.0093 29.1107 37.0093H25.7559V46.6441H25.7559Z" fill="#005A9B"/>
</g>
<defs>
<clipPath id="clip0_39128_304620">
<rect width="50" height="51.4542" fill="white" transform="translate(1 0.272949)"/>
</clipPath>
</defs>
</svg>
